<svg width="36.000000" height="36.000000" viewBox="0 0 36 36" fill="none" xmlns="http://www.w3.org/2000/svg" xmlns:xlink="http://www.w3.org/1999/xlink">
	<desc>
			Created with Pixso.
	</desc>
	<defs/>
	<circle id="Ellipse 2" cx="18.000000" cy="18.000000" r="18.000000" fill="#85AA9F" fill-opacity="1.000000"/>
	<path id="Union" d="M17.9512 16.6666C23.2344 12.6818 23.4668 10.2667 17.9512 6C12.3281 10.3577 13.0527 12.6675 17.9512 16.6666ZM6 18.0504C10.2676 12.5337 12.6816 12.767 16.666 18.0504C12.668 22.9478 10.3574 23.6724 6 18.0504ZM19.334 18.0504C23.5996 12.5337 26.0156 12.767 30 18.0504C26 22.9478 23.6914 23.6724 19.334 18.0504ZM17.9512 19.333C23.4668 23.5997 23.2344 26.0148 17.9512 29.9996C13.0527 26.0005 12.3281 23.6907 17.9512 19.333Z" clip-rule="evenodd" fill="#FCFCFC" fill-opacity="1.000000" fill-rule="evenodd"/>
</svg>
